# xmcd
#
# Track frame offsets: 
#        150
#        11736
#        25879
#        54249
#        77412
#        94529
#        116011
#        153805
#
# Disc length: 2402 seconds
#
# Revision: 1
# Processed by: cddbd v1.5.2PL0 Copyright (c) Steve Scherf et al.
# Submitted via: ExactAudioCopy v1.3
#
DISCID=4c096008
DTITLE=Bobbi Humphrey - Flute-In
DYEAR=1971
DGENRE=Jazz
TTITLE0=Ain't No Sunshine
TTITLE1=It's Too Late
TTITLE2=Sidewinder
TTITLE3=Sad Bag
TTITLE4=Spanish Harlem
TTITLE5=Don't Knock My Funk
TTITLE6=Journey To Morocco
TTITLE7=Set Us Free
EXTD=YEAR: 1971
EXTT0=
EXTT1=
EXTT2=
EXTT3=
EXTT4=
EXTT5=
EXTT6=
EXTT7=
PLAYORDER=
